<svg width="17" height="18" viewBox="0 0 17 18" fill="none" xmlns="http://www.w3.org/2000/svg">
<g clip-path="url(#clip0_1417_678)">
<path d="M16.4232 4.95125C16.0574 4.58549 15.4933 4.52883 15.0554 4.81216C14.9163 4.90231 14.7618 4.97443 14.5995 5.03368L12.4745 2.90868C12.5338 2.74898 12.6059 2.59443 12.696 2.45534C12.9819 2.01489 12.9227 1.45337 12.5492 1.07989C12.2994 0.848071 11.9877 0.739889 11.6683 0.770798C11.3335 0.806859 11.0373 0.992313 10.8569 1.27822C10.1229 2.43474 10.0044 3.87716 10.0559 4.97186C8.70619 4.92034 6.9624 5.13156 5.79301 6.30095C4.62619 7.46777 4.41498 9.21413 4.46649 10.569C3.36149 10.52 1.91134 10.6385 0.767703 11.3649C0.698157 11.4087 0.636339 11.4602 0.577097 11.5169C0.371036 11.7229 0.255127 11.9985 0.255127 12.2896C0.255127 12.5806 0.36846 12.8563 0.574521 13.0623C0.785733 13.2735 1.06134 13.3817 1.33952 13.3817C1.54558 13.3817 1.75422 13.3225 1.94225 13.2014C2.00664 13.1602 2.07619 13.1216 2.14573 13.0881L4.41755 15.3599C4.38149 15.4294 4.34543 15.499 4.30422 15.5634C4.01831 16.0038 4.07755 16.5653 4.44331 16.9337C4.6571 17.1475 4.93528 17.2531 5.21604 17.2531C5.49679 17.2531 5.77755 17.1449 5.99134 16.9337C6.04801 16.877 6.09952 16.8152 6.14331 16.7431C6.86967 15.5994 6.98558 14.1493 6.93922 13.0443C8.29407 13.0958 10.0379 12.8846 11.2072 11.7178C12.3741 10.5509 12.5879 8.80716 12.5389 7.45489C13.631 7.5064 15.0709 7.39049 16.23 6.6564C16.5159 6.4761 16.6988 6.17989 16.7374 5.84246C16.7683 5.51792 16.6601 5.20625 16.4232 4.95125ZM14.0432 5.18307C13.3889 5.30671 12.7038 5.27837 12.2659 5.23716C12.2247 4.80186 12.1938 4.11413 12.32 3.45989L14.0432 5.18307ZM11.2794 1.54353C11.3773 1.3864 11.5395 1.28595 11.7224 1.26534C11.9439 1.24216 12.1088 1.35034 12.2041 1.43792C12.4024 1.63625 12.4307 1.94277 12.2762 2.18489C11.7069 3.07353 11.6915 4.33822 11.761 5.17792C11.6683 5.16246 11.6013 5.14959 11.5679 5.14443C11.4906 5.1264 11.1068 5.04913 10.5582 5.00277C10.5041 3.97504 10.5994 2.60989 11.2794 1.54353ZM2.66346 12.8897C3.36664 12.6966 4.17028 12.7172 4.73437 12.7713C4.78846 13.3328 4.81164 14.139 4.61846 14.8422L2.66346 12.8897ZM5.72604 16.4675C5.70028 16.5061 5.67452 16.5396 5.64104 16.5731C5.40922 16.8049 5.03316 16.8049 4.80134 16.5756C4.60301 16.3773 4.57467 16.0708 4.72922 15.8313C5.29589 14.9478 5.31134 13.6805 5.24179 12.8382C5.36286 12.8563 5.4324 12.8717 5.4324 12.8717C5.51225 12.8897 5.89604 12.967 6.4421 13.0108C6.49104 14.0437 6.39316 15.414 5.72604 16.4675ZM10.8544 11.3597C9.67725 12.5369 7.74286 12.5935 6.69195 12.5266C6.06604 12.4905 5.62043 12.3978 5.53286 12.3797C5.52513 12.3772 5.31649 12.3359 4.98937 12.2973C4.18058 12.202 2.67634 12.1376 1.67437 12.779C1.43482 12.9361 1.12831 12.9052 0.929976 12.7069C0.819218 12.5961 0.7574 12.4467 0.7574 12.287C0.7574 12.1273 0.819218 11.9779 0.932551 11.8646C0.96346 11.8337 0.996945 11.8053 1.03558 11.7822C2.16634 11.0661 3.66028 11.0043 4.71376 11.079C5.24695 11.1176 5.64104 11.1897 5.78528 11.2181C5.87543 11.2387 6.1227 11.2825 6.41634 11.3134C7.3668 11.4138 9.0977 11.4447 10.0198 10.5226C10.8673 9.67519 10.9007 8.10913 10.8415 7.22822C10.9419 7.24368 11.0347 7.25913 11.1119 7.27459C11.2485 7.30292 11.5833 7.36731 12.0392 7.4111C12.0907 8.67065 11.913 10.3011 10.8544 11.3597ZM10.3341 7.17413C10.3521 7.41883 10.3676 7.76913 10.3469 8.15292L9.35528 7.16125C9.73907 7.13807 10.0894 7.15352 10.3341 7.17413ZM8.71649 7.22822L10.2774 8.78913C10.2053 9.21413 10.0713 9.6314 9.8421 9.95595L7.54967 7.66353C7.8768 7.43428 8.29149 7.30034 8.71649 7.22822ZM7.18907 8.01125L9.49437 10.3166C9.18013 10.5561 8.77573 10.7003 8.35073 10.7776L6.73058 9.15746C6.81043 8.73504 6.94952 8.32807 7.18907 8.01125ZM6.67134 10.8369C6.64816 10.5561 6.6327 10.1852 6.65589 9.78852L7.71967 10.8523C7.34361 10.8755 6.97786 10.86 6.67134 10.8369ZM15.9621 6.22625C14.8159 6.95519 13.3348 7.01186 12.2916 6.93201C11.7559 6.89337 11.3592 6.8161 11.2124 6.78519C11.045 6.74913 10.8235 6.71565 10.5891 6.69246C9.82407 6.61004 7.94377 6.52246 6.98043 7.4858C6.14846 8.31777 6.09179 9.79625 6.16392 10.7776C6.01195 10.7544 5.91922 10.7364 5.91149 10.7364L5.88058 10.7287C5.74664 10.7029 5.41695 10.6411 4.96619 10.5999C4.91983 9.51807 5.04346 7.75368 6.14331 6.65125C7.26376 5.5308 9.02301 5.39686 10.3032 5.48186C10.9342 5.52049 11.3772 5.61065 11.4648 5.63125C11.5369 5.64671 11.7301 5.68277 12.0083 5.71625C12.8119 5.81413 14.311 5.87853 15.3207 5.23201C15.5603 5.07746 15.8668 5.1058 16.06 5.2964C16.1527 5.39686 16.2609 5.56428 16.2377 5.78322C16.2197 5.9661 16.1192 6.12837 15.9621 6.22625Z" fill="#4EB08C"/>
</g>
<defs>
<clipPath id="clip0_1417_678">
<rect width="17" height="17" fill="white" transform="translate(0 0.505371)"/>
</clipPath>
</defs>
</svg>
