<svg width="18" height="18" viewBox="0 0 18 18" fill="none" xmlns="http://www.w3.org/2000/svg">
<g clip-path="url(#clip0_1417_691)">
<path d="M16.6695 10.4628H16.4151V8.17127C16.4151 7.80849 16.2345 7.48728 15.9588 7.29211V6.9801C15.9588 6.52751 15.5906 6.15932 15.138 6.15932H14.948L15.6748 5.09284C15.9184 4.73537 15.8258 4.24633 15.4683 4.00268L10.5366 0.641861C10.3635 0.523824 10.1548 0.480261 9.94876 0.519341C9.74287 0.558355 9.56447 0.675197 9.44646 0.848384L5.18979 7.09466H4.00527L4.29105 4.20167C4.29427 4.16906 4.31545 4.14081 4.345 4.12968C4.71319 3.99086 5.03227 3.73161 5.24345 3.39971C5.26008 3.37358 5.29146 3.35864 5.32393 3.36193L7.18181 3.54547C7.31502 3.55839 7.43352 3.46137 7.44667 3.32823C7.45982 3.19508 7.36257 3.07651 7.22942 3.06336L5.37154 2.87982C5.15589 2.8587 4.95023 2.95808 4.83468 3.13963C4.67942 3.38368 4.44481 3.57426 4.17411 3.67633C3.97034 3.75316 3.83042 3.93618 3.8089 4.15402L3.51844 7.09462H3.20955L3.66152 2.5191C3.67779 2.35441 3.82478 2.23342 3.98966 2.24992L7.74407 2.6208C7.87722 2.63365 7.99579 2.5367 8.00893 2.40355C8.02208 2.27041 7.92483 2.15184 7.79169 2.13869L4.03728 1.76781C3.60683 1.72535 3.22191 2.04094 3.17937 2.47145L2.81507 6.15932H2.19467C1.74211 6.15932 1.37389 6.52751 1.37389 6.9801V7.19294C1.00364 7.3634 0.74585 7.73767 0.74585 8.17127V16.4287C0.74585 17.0224 1.22882 17.5054 1.82253 17.5054H15.3384C15.9321 17.5054 16.4151 17.0224 16.4151 16.4287V14.1372H16.6695C16.9698 14.1372 17.214 13.893 17.214 13.5927V11.0073C17.2141 10.7071 16.9698 10.4628 16.6695 10.4628ZM15.138 6.64382C15.3235 6.64379 15.4743 6.79467 15.4743 6.98014V7.10355C15.4297 7.09791 15.3845 7.09469 15.3384 7.09469H14.3106L14.6179 6.64382H15.138ZM9.84679 1.12118C9.89195 1.05494 9.96018 1.01025 10.0389 0.995308C10.0578 0.991755 10.0767 0.989962 10.0954 0.989962C10.1551 0.989962 10.2134 1.00783 10.2638 1.04216L15.1955 4.40298C15.3322 4.49618 15.3677 4.68325 15.2745 4.81998L13.7244 7.09459H13.3524L14.1124 5.9794C14.2356 5.79854 14.2458 5.56837 14.1388 5.37868C13.9966 5.12667 13.939 4.82994 13.9765 4.5431C14.0044 4.3297 13.9105 4.12138 13.7315 3.99939L11.1749 2.25716C10.9958 2.13514 10.7676 2.12395 10.5792 2.22797C10.326 2.36776 10.0287 2.42264 9.7422 2.38253C9.5297 2.35272 9.31418 2.44868 9.19276 2.62681L6.14807 7.09462H5.77606L9.84679 1.12118ZM9.95348 5.23475C8.89858 5.23475 8.03264 6.05729 7.96208 7.09462H6.73427L9.59302 2.89964H9.59306C9.60929 2.87577 9.63622 2.86156 9.66388 2.86156C9.66756 2.86156 9.67125 2.86182 9.67493 2.86232C10.0647 2.91684 10.4689 2.84227 10.8133 2.65211C10.8404 2.6371 10.8752 2.63926 10.902 2.65752L13.4586 4.39979C13.4854 4.41805 13.5001 4.44966 13.4961 4.48034C13.4451 4.87044 13.5235 5.274 13.7169 5.61672C13.7324 5.64424 13.7305 5.6795 13.7121 5.70657L12.7662 7.09459H11.945C11.8743 6.05729 11.0084 5.23475 9.95348 5.23475ZM11.4592 7.09466H8.44781C8.51721 6.32471 9.1658 5.71925 9.95348 5.71925C10.7412 5.71922 11.3898 6.32471 11.4592 7.09466ZM1.85835 6.9801C1.85835 6.79463 2.0092 6.64376 2.19467 6.64376H2.76722L2.7227 7.09462H1.85835V6.9801ZM1.23032 8.17127C1.23032 7.84475 1.49597 7.57909 1.82253 7.57909H15.3384C15.665 7.57909 15.9306 7.84475 15.9306 8.17127V8.84343H1.23032V8.17127ZM15.9306 16.4287C15.9306 16.7552 15.665 17.0209 15.3384 17.0209H1.82253C1.49597 17.0209 1.23032 16.7552 1.23032 16.4287V15.7566H2.53659C2.6704 15.7566 2.77881 15.6481 2.77881 15.5143C2.77881 15.3806 2.67037 15.2721 2.53659 15.2721H1.23032V9.3279H15.9306V10.4628H13.6274H13.6274C12.9017 10.4628 12.2731 10.8858 11.9748 11.4981C11.9738 11.5001 11.9727 11.5021 11.9716 11.5042C11.9691 11.5094 11.9669 11.5148 11.9645 11.5201C11.9289 11.5955 11.8981 11.6737 11.8729 11.7543C11.8728 11.7545 11.8728 11.7547 11.8727 11.7549C11.8191 11.9272 11.7902 12.1103 11.7902 12.3C11.7902 13.3131 12.6143 14.1372 13.6274 14.1372H13.6274H15.9306V15.2721H4.08764C3.95384 15.2721 3.84543 15.3806 3.84543 15.5143C3.84543 15.6481 3.95387 15.7566 4.08764 15.7566H15.9306V16.4287ZM16.7296 13.5927C16.7296 13.6258 16.7026 13.6528 16.6695 13.6528H13.6275C13.1146 13.6528 12.6675 13.3659 12.4382 12.9443C12.4278 12.9251 12.4178 12.9057 12.4083 12.886C12.3893 12.8466 12.3721 12.8061 12.3569 12.7647C12.3037 12.6197 12.2747 12.4632 12.2747 12.3C12.2747 12.1368 12.3038 11.9803 12.3569 11.8354C12.3721 11.794 12.3893 11.7535 12.4083 11.714C12.4178 11.6944 12.4278 11.6749 12.4382 11.6557C12.6675 11.2341 13.1146 10.9472 13.6275 10.9472H16.6695C16.7026 10.9472 16.7296 10.9742 16.7296 11.0073V13.5927Z" fill="#4EB08C"/>
<path d="M13.6842 11.3188C13.1423 11.3188 12.7014 11.7598 12.7014 12.3017C12.7014 12.8436 13.1423 13.2844 13.6842 13.2844C14.2262 13.2844 14.667 12.8436 14.667 12.3017C14.667 11.7598 14.2262 11.3188 13.6842 11.3188ZM13.6842 12.8C13.4094 12.8 13.1859 12.5764 13.1859 12.3017C13.1859 12.0269 13.4094 11.8033 13.6842 11.8033C13.959 11.8033 14.1826 12.0269 14.1826 12.3017C14.1826 12.5764 13.959 12.8 13.6842 12.8Z" fill="#4EB08C"/>
</g>
<defs>
<clipPath id="clip0_1417_691">
<rect width="17" height="17" fill="white" transform="translate(0.47998 0.505371)"/>
</clipPath>
</defs>
</svg>
