<svg width="18" height="18" viewBox="0 0 18 18" fill="none" xmlns="http://www.w3.org/2000/svg">
<path d="M14.7175 10.0676L10.2178 14.562C9.99705 14.78 9.6993 14.9023 9.38904 14.9023C9.07879 14.9023 8.78103 14.78 8.56029 14.562L4.69279 10.6892C4.6679 10.6645 4.64814 10.6351 4.63465 10.6027C4.62116 10.5704 4.61422 10.5356 4.61422 10.5006C4.61422 10.4655 4.62116 10.4308 4.63465 10.3984C4.64814 10.3661 4.6679 10.3367 4.69279 10.312C4.74334 10.263 4.81098 10.2356 4.88139 10.2356C4.95179 10.2356 5.01943 10.263 5.06998 10.312L8.93217 14.1795C9.05427 14.2989 9.21826 14.3658 9.38904 14.3658C9.55983 14.3658 9.72382 14.2989 9.84592 14.1795L14.3403 9.68511C16.189 7.83105 15.8012 5.75917 14.6537 4.61167C13.5062 3.46417 11.429 3.07105 9.57498 4.92511C9.5247 4.97255 9.45818 4.99898 9.38904 4.99898C9.31991 4.99898 9.25339 4.97255 9.20311 4.92511C7.50842 3.22511 5.70748 3.44823 4.59186 4.22386C3.96791 4.6517 3.51117 5.28221 3.29911 6.00843C3.08706 6.73464 3.13274 7.51186 3.42842 8.20823H5.15498L5.93061 5.02073C5.95666 4.93062 6.01215 4.85183 6.08822 4.79694C6.16429 4.74205 6.25656 4.71423 6.35029 4.71792C6.44197 4.72472 6.52879 4.76182 6.59707 4.82337C6.66536 4.88492 6.71123 4.96744 6.72748 5.05792L7.72623 9.92417L8.44873 6.68355C8.46933 6.59616 8.51883 6.51829 8.58922 6.46256C8.65961 6.40683 8.74676 6.37651 8.83654 6.37651C8.92632 6.37651 9.01347 6.40683 9.08386 6.46256C9.15426 6.51829 9.20376 6.59616 9.22436 6.68355L9.60154 8.17636H13.3203C13.3907 8.17636 13.4583 8.20434 13.5081 8.25416C13.5579 8.30397 13.5859 8.37153 13.5859 8.44198C13.5859 8.51243 13.5579 8.57999 13.5081 8.62981C13.4583 8.67962 13.3907 8.70761 13.3203 8.70761H9.60154C9.47874 8.71061 9.35869 8.67096 9.26183 8.59541C9.16497 8.51986 9.09728 8.41307 9.07029 8.29323L8.83123 7.34761L8.11936 10.5989C8.09873 10.6888 8.04795 10.7689 7.97546 10.8259C7.90297 10.8829 7.81314 10.9134 7.72092 10.9123C7.62646 10.9108 7.53561 10.8758 7.46458 10.8135C7.39355 10.7512 7.34695 10.6657 7.33311 10.5723L6.32373 5.69542L5.68623 8.3198C5.66031 8.44062 5.59308 8.54862 5.49612 8.62523C5.39916 8.70183 5.27852 8.74223 5.15498 8.73948H2.07373C2.00328 8.73948 1.93572 8.7115 1.88591 8.66168C1.83609 8.61187 1.80811 8.54431 1.80811 8.47386C1.80811 8.40341 1.83609 8.33585 1.88591 8.28603C1.93572 8.23622 2.00328 8.20823 2.07373 8.20823H2.85467C2.56886 7.41682 2.5547 6.55278 2.81443 5.75243C3.07416 4.95209 3.59298 4.261 4.28904 3.78823C5.48436 2.95948 7.51373 2.63011 9.38904 4.3673C11.4503 2.47073 13.7612 2.94355 15.0256 4.22386C16.29 5.50417 16.8265 7.94261 14.7175 10.0676Z" fill="#4EB08C"/>
</svg>
