<svg width="18" height="18" viewBox="0 0 18 18" fill="none" xmlns="http://www.w3.org/2000/svg">
<g clip-path="url(#clip0_1417_673)">
<path d="M1.51165 17.4903C1.18944 17.4903 0.930725 17.4112 0.753287 17.2348C0.571865 17.055 0.480225 16.7946 0.480225 16.461C0.479959 14.1416 5.12494 7.88637 6.6058 6.41693C8.24205 4.7929 10.3548 4.70684 11.8631 6.20311C12.559 6.89373 12.942 7.76312 12.942 8.65137C12.942 9.62675 12.4944 10.5862 11.6476 11.4264C10.5243 12.5412 4.0566 17.4903 1.51165 17.4903ZM6.9798 6.79412C5.51754 8.2455 1.01121 14.4019 1.01121 16.461C1.01121 16.6477 1.05026 16.7814 1.12729 16.8576C2.13507 17.8561 9.3258 12.9821 11.2734 11.0492C12.0174 10.311 12.4105 9.48198 12.4105 8.65137C12.4105 7.89487 12.092 7.17875 11.4888 6.58029C10.1846 5.28564 8.41524 5.36984 6.9798 6.79412Z" fill="#4EB08C"/>
<path d="M11.1462 11.6911C11.0784 11.6911 11.0107 11.6654 10.9592 11.6141L9.09237 9.76083C8.98797 9.65723 8.98744 9.48936 9.09077 9.38523C9.19437 9.28084 9.36277 9.28058 9.46637 9.38364L11.3332 11.2369C11.4376 11.3405 11.4381 11.5084 11.3348 11.6125C11.283 11.6648 11.2144 11.6911 11.1462 11.6911Z" fill="#4EB08C"/>
<path d="M7.6458 14.2393C7.57807 14.2393 7.51034 14.2136 7.4588 14.1623L6.05843 12.7725C5.95404 12.669 5.95351 12.5011 6.05684 12.397C6.16043 12.2926 6.32884 12.2923 6.43243 12.3954L7.8328 13.7851C7.9372 13.8887 7.93773 14.0566 7.8344 14.1607C7.7826 14.213 7.71407 14.2393 7.6458 14.2393Z" fill="#4EB08C"/>
<path d="M4.37823 13.3126C4.31049 13.3126 4.24276 13.2868 4.19123 13.2355L2.79085 11.8458C2.68646 11.7422 2.68593 11.5743 2.78926 11.4702C2.89285 11.3658 3.06126 11.3655 3.16485 11.4686L4.56523 12.8584C4.66962 12.9619 4.67015 13.1298 4.56682 13.2339C4.51502 13.2863 4.44649 13.3126 4.37823 13.3126Z" fill="#4EB08C"/>
<path d="M7.64571 10.0698C7.57798 10.0698 7.51024 10.044 7.45871 9.99273L5.59163 8.13973C5.48724 8.03614 5.48671 7.86827 5.59004 7.76414C5.69363 7.65975 5.86204 7.65948 5.96563 7.76255L7.83271 9.61555C7.9371 9.71914 7.93763 9.88701 7.83431 9.99114C7.78251 10.0435 7.71398 10.0698 7.64571 10.0698Z" fill="#4EB08C"/>
<path d="M3.91128 16.5559C3.84355 16.5559 3.77581 16.5301 3.72428 16.4788L2.79061 15.5523C2.68622 15.4487 2.68569 15.2809 2.78901 15.1767C2.89261 15.0723 3.06101 15.0721 3.16461 15.1751L4.09828 16.1016C4.20267 16.2052 4.2032 16.3731 4.09987 16.4772C4.04808 16.5296 3.97955 16.5559 3.91128 16.5559Z" fill="#4EB08C"/>
<path d="M11.613 6.59565C11.4661 6.59565 11.3474 6.47691 11.3474 6.33002C11.3474 5.22848 11.7889 4.20635 12.5908 3.45198C13.3322 2.74727 14.3115 2.3584 15.3472 2.3584C15.4941 2.3584 15.6128 2.47713 15.6128 2.62402C15.6128 3.65332 15.2208 4.62604 14.5094 5.36315C14.5001 5.37643 14.4698 5.40751 14.4419 5.43513C13.687 6.1834 12.6824 6.59565 11.6133 6.59565H11.613ZM15.0707 2.90027C14.2754 2.9619 13.5327 3.28968 12.956 3.83793C12.3286 4.42815 11.956 5.20616 11.8896 6.05377C12.7135 5.99002 13.4785 5.64179 14.0679 5.05741C14.0679 5.05741 14.0679 5.05741 14.0679 5.05688C14.0823 5.0428 14.0985 5.0274 14.1112 5.01173C14.6765 4.4247 15.0075 3.68812 15.0701 2.90027H15.0707Z" fill="#4EB08C"/>
<path d="M11.6132 6.59569C11.5444 6.59569 11.4766 6.56886 11.4262 6.51866C10.6272 5.72577 10.187 4.6715 10.187 3.55056C10.187 2.42962 10.6272 1.37563 11.4262 0.582469C11.5295 0.479672 11.6971 0.479672 11.8002 0.582469C12.6002 1.37642 13.0409 2.43042 13.0409 3.55056L13.0385 3.64539C13.0385 3.71844 13.0082 3.78856 12.9551 3.83903C12.261 4.49167 11.8788 5.37647 11.8788 6.33006C11.8788 6.43711 11.8142 6.53406 11.7154 6.57523C11.6822 6.58905 11.6477 6.59569 11.6132 6.59569ZM11.6132 1.15941C11.0341 1.82427 10.7183 2.66337 10.7183 3.55056C10.7183 4.3222 10.9573 5.05798 11.4009 5.67397C11.5345 4.86275 11.916 4.12033 12.5096 3.53064C12.5049 2.65169 12.1888 1.82028 11.6132 1.15941Z" fill="#4EB08C"/>
<path d="M14.4136 7.7446C13.3317 7.7446 12.2498 7.3358 11.4261 6.51847C11.3496 6.44277 11.3265 6.32829 11.3674 6.22868C11.4083 6.12907 11.5055 6.06425 11.6131 6.06425C12.5414 6.06425 13.4132 5.70646 14.068 5.05727C14.0826 5.04266 14.0988 5.02725 14.1115 5.01158C14.1618 4.94943 14.238 4.91304 14.3179 4.91304L14.4133 4.91064C15.5406 4.91064 16.6015 5.34786 17.401 6.14129C17.4513 6.19122 17.4797 6.25896 17.4797 6.32988C17.4797 6.4008 17.4515 6.46854 17.401 6.51847C16.5773 7.3358 15.4957 7.7446 14.4136 7.7446ZM12.2777 6.54158C13.6454 7.50394 15.5305 7.43275 16.8225 6.32988C16.1569 5.75985 15.3193 5.44694 14.4345 5.44189C13.8398 6.02893 13.0908 6.40771 12.2777 6.54158Z" fill="#4EB08C"/>
<path d="M15.355 6.61475C13.23 6.61475 13.23 6.25589 13.23 6.0835C13.23 5.93661 13.3487 5.81787 13.4956 5.81787C13.5857 5.81787 13.6653 5.86276 13.7134 5.93156C13.8627 5.98734 14.3993 6.0835 15.355 6.0835C15.5019 6.0835 15.6206 6.20223 15.6206 6.34912C15.6206 6.49601 15.5019 6.61475 15.355 6.61475Z" fill="#4EB08C"/>
<path d="M11.9383 4.73777C11.4076 4.73777 11.1133 3.83757 11.0562 2.93072C11.0471 2.78437 11.1582 2.65819 11.3048 2.6489C11.4485 2.6404 11.5771 2.7509 11.5866 2.89752C11.6366 3.69413 11.8626 4.13719 11.9588 4.20599C12.095 4.20944 12.2079 4.31649 12.217 4.45515C12.226 4.60151 12.115 4.72768 11.9683 4.73697C11.9582 4.73751 11.9484 4.73804 11.9386 4.73804L11.9383 4.73777Z" fill="#4EB08C"/>
<path d="M11.6362 6.34889C11.5624 6.34889 11.4888 6.31834 11.4362 6.25805C11.3398 6.14781 11.3509 5.97994 11.4614 5.88325L13.5864 4.02387C13.6964 3.92719 13.8643 3.93808 13.9612 4.04911C14.0576 4.15934 14.0465 4.32722 13.936 4.42391L11.811 6.28328C11.7608 6.32737 11.6984 6.34889 11.6362 6.34889Z" fill="#4EB08C"/>
</g>
<defs>
<clipPath id="clip0_1417_673">
<rect width="17" height="17" fill="white" transform="translate(0.47998 0.505371)"/>
</clipPath>
</defs>
</svg>
