<svg width="18" height="18" viewBox="0 0 18 18" fill="none" xmlns="http://www.w3.org/2000/svg">
<g clip-path="url(#clip0_1417_682)">
<path d="M8.97998 17.2065C4.45772 17.2065 0.778809 13.5276 0.778809 9.00537C0.778809 4.48311 4.45772 0.804199 8.97998 0.804199C13.5022 0.804199 17.1812 4.48311 17.1812 9.00537C17.1812 13.5276 13.5022 17.2065 8.97998 17.2065ZM8.97998 1.26904C4.71404 1.26904 1.24365 4.73943 1.24365 9.00537C1.24365 13.2713 4.71404 16.7417 8.97998 16.7417C13.2459 16.7417 16.7163 13.2713 16.7163 9.00537C16.7163 4.73943 13.2459 1.26904 8.97998 1.26904Z" fill="#4EB08C"/>
<path d="M3.98766 12.3002C3.97836 12.3002 3.96906 12.3002 3.95977 12.2989C3.88938 12.2909 3.82563 12.2497 3.78844 12.19C3.20141 11.2337 2.89062 10.1327 2.89062 9.00512C2.89062 5.64762 5.62125 2.91699 8.97875 2.91699C10.105 2.91699 11.206 3.22777 12.1636 3.8148C12.2247 3.85199 12.2645 3.91441 12.2725 3.98613C12.2805 4.05652 12.2566 4.12691 12.2061 4.17738L4.15234 12.2325C4.10852 12.2763 4.04875 12.3002 3.98766 12.3002ZM8.98008 3.38184C5.87891 3.38184 3.3568 5.90395 3.3568 9.00512C3.3568 9.94676 3.59188 10.8685 4.0368 11.6893L11.6642 4.06184C10.8434 3.61691 9.92172 3.38184 8.98008 3.38184Z" fill="#4EB08C"/>
<path d="M8.98007 15.0938C7.85382 15.0938 6.7528 14.783 5.79523 14.196C5.73413 14.1588 5.69429 14.0964 5.68632 14.0247C5.67835 13.9543 5.70226 13.8839 5.75273 13.8334L13.8078 5.77836C13.8583 5.72789 13.9287 5.70399 13.9991 5.71195C14.0694 5.71992 14.1332 5.76109 14.1704 5.82086C14.7574 6.77711 15.0682 7.87813 15.0682 9.0057C15.0682 12.3632 12.3376 15.0938 8.98007 15.0938ZM6.29593 13.949C7.11671 14.3952 8.03843 14.629 8.98007 14.629C12.0812 14.629 14.6033 12.1069 14.6033 9.0057C14.6033 8.06406 14.3683 7.14234 13.9233 6.32156L6.29593 13.949Z" fill="#4EB08C"/>
</g>
<defs>
<clipPath id="clip0_1417_682">
<rect width="17" height="17" fill="white" transform="translate(0.47998 0.505371)"/>
</clipPath>
</defs>
</svg>
