<svg width="17" height="18" viewBox="0 0 17 18" fill="none" xmlns="http://www.w3.org/2000/svg">
<g clip-path="url(#clip0_1417_687)">
<path d="M9.48586 8.70071C9.51772 8.71261 9.55146 8.71868 9.58547 8.71864H12.7962C12.87 8.71864 12.9408 8.68932 12.993 8.63714C13.0451 8.58496 13.0745 8.51419 13.0745 8.4404C13.0745 8.3666 13.0451 8.29583 12.993 8.24365C12.9408 8.19147 12.87 8.16215 12.7962 8.16215H9.58547C9.55473 8.16226 9.52422 8.16742 9.49515 8.17743C9.45175 8.0031 9.36316 7.84329 9.23832 7.71411C9.11347 7.58493 8.95678 7.49094 8.78404 7.44162C8.61129 7.39229 8.4286 7.38938 8.25437 7.43316C8.08013 7.47694 7.92052 7.56588 7.79161 7.69101C7.66271 7.81613 7.56906 7.97303 7.52011 8.14588C7.47116 8.31873 7.46864 8.50143 7.51281 8.67557C7.55697 8.84971 7.64625 9.00912 7.77166 9.13776C7.89707 9.26639 8.05417 9.3597 8.22713 9.40827C8.22713 9.41856 8.22547 9.42885 8.22547 9.43915V12.6499C8.22547 12.7237 8.25478 12.7945 8.30696 12.8466C8.35914 12.8988 8.42991 12.9281 8.50371 12.9281C8.5775 12.9281 8.64828 12.8988 8.70046 12.8466C8.75264 12.7945 8.78195 12.7237 8.78195 12.6499V9.43915C8.78195 9.42885 8.78195 9.41856 8.78029 9.40827C8.94845 9.36024 9.10155 9.27003 9.22503 9.14619C9.34852 9.02235 9.43831 8.869 9.48586 8.70071ZM8.50205 8.88997C8.41011 8.88997 8.32024 8.8627 8.2438 8.81163C8.16735 8.76055 8.10777 8.68795 8.07259 8.60301C8.03741 8.51807 8.0282 8.42461 8.04614 8.33444C8.06407 8.24427 8.10835 8.16144 8.17336 8.09643C8.23837 8.03142 8.32119 7.98715 8.41136 7.96921C8.50153 7.95128 8.595 7.96048 8.67994 7.99566C8.76488 8.03085 8.83747 8.09043 8.88855 8.16687C8.93963 8.24331 8.96689 8.33319 8.96689 8.42512C8.96689 8.54841 8.91792 8.66664 8.83074 8.75382C8.74357 8.84099 8.62533 8.88997 8.50205 8.88997Z" fill="#4EB08C"/>
<path d="M14.0943 2.82278C12.6105 1.33897 10.598 0.505371 8.49954 0.505371C6.40111 0.505371 4.38863 1.33897 2.90481 2.82278C1.421 4.3066 0.587402 6.31908 0.587402 8.41751C0.587402 10.5159 1.421 12.5284 2.90481 14.0122C3.63791 14.7491 4.5099 15.3333 5.4703 15.7309C6.4307 16.1285 7.46043 16.3316 8.49987 16.3285C9.04708 16.3287 9.59284 16.2724 10.1285 16.1605C10.165 16.1538 10.1998 16.1399 10.2308 16.1195C10.2619 16.0991 10.2885 16.0728 10.3092 16.042C10.3299 16.0112 10.3443 15.9765 10.3514 15.9401C10.3585 15.9037 10.3582 15.8662 10.3506 15.8298C10.343 15.7935 10.3283 15.7591 10.3071 15.7285C10.286 15.698 10.259 15.672 10.2277 15.6521C10.1964 15.6321 10.1614 15.6187 10.1248 15.6125C10.0882 15.6063 10.0507 15.6075 10.0146 15.6159C9.6063 15.7009 9.19156 15.7512 8.77479 15.7664V14.0026C8.77479 13.9288 8.74548 13.858 8.6933 13.8059C8.64112 13.7537 8.57035 13.7244 8.49655 13.7244C8.42276 13.7244 8.35199 13.7537 8.2998 13.8059C8.24762 13.858 8.21831 13.9288 8.21831 14.0026V15.766C4.38268 15.6209 1.29247 12.5271 1.15069 8.6921H2.91411C2.98791 8.6921 3.05868 8.66279 3.11086 8.61061C3.16304 8.55842 3.19235 8.48765 3.19235 8.41386C3.19235 8.34006 3.16304 8.26929 3.11086 8.21711C3.05868 8.16493 2.98791 8.13562 2.91411 8.13562H1.15069C1.29479 4.30132 4.38966 1.20944 8.22495 1.06767V2.83142C8.22495 2.90521 8.25427 2.97598 8.30645 3.02816C8.35863 3.08034 8.4294 3.10966 8.50319 3.10966C8.57699 3.10966 8.64776 3.08034 8.69994 3.02816C8.75212 2.97598 8.78144 2.90521 8.78144 2.83142V1.068C12.6171 1.2131 15.7073 4.30696 15.8491 8.14226H14.0856C14.0118 8.14226 13.9411 8.17157 13.8889 8.22375C13.8367 8.27593 13.8074 8.3467 13.8074 8.4205C13.8074 8.49429 13.8367 8.56507 13.8889 8.61725C13.9411 8.66943 14.0118 8.69874 14.0856 8.69874H15.8491C15.833 9.12867 15.7796 9.55639 15.6893 9.97706C15.6808 10.0131 15.6795 10.0505 15.6855 10.087C15.6916 10.1236 15.7049 10.1586 15.7246 10.1899C15.7444 10.2212 15.7702 10.2483 15.8005 10.2696C15.8309 10.2908 15.8652 10.3058 15.9014 10.3136C15.9376 10.3214 15.975 10.3219 16.0114 10.315C16.0478 10.3082 16.0825 10.2941 16.1134 10.2737C16.1443 10.2533 16.1708 10.2269 16.1914 10.1961C16.212 10.1653 16.2262 10.1306 16.2332 10.0943C16.3518 9.54324 16.4116 8.98117 16.4115 8.41751C16.4144 7.37806 16.2111 6.34837 15.8133 5.38803C15.4155 4.4277 14.8313 3.55579 14.0943 2.82278Z" fill="#4EB08C"/>
<path d="M5.86098 3.28918L5.54721 2.74565C5.51031 2.68171 5.44953 2.63506 5.37823 2.61594C5.30693 2.59682 5.23096 2.60681 5.16703 2.64371C5.1031 2.68061 5.05644 2.74139 5.03733 2.81269C5.01821 2.88398 5.0282 2.95996 5.0651 3.02389L5.37887 3.56742C5.39669 3.5999 5.42083 3.62849 5.44985 3.65152C5.47887 3.67455 5.51221 3.69155 5.54789 3.70152C5.58357 3.71149 5.62088 3.71424 5.65764 3.7096C5.6944 3.70496 5.72986 3.69302 5.76194 3.67449C5.79402 3.65596 5.82208 3.63121 5.84447 3.6017C5.86686 3.57218 5.88313 3.53848 5.89232 3.50259C5.90152 3.4667 5.90345 3.42934 5.89801 3.39269C5.89257 3.35604 5.87987 3.32085 5.86064 3.28918H5.86098Z" fill="#4EB08C"/>
<path d="M3.65242 5.29605L3.10889 4.98228C3.07722 4.96305 3.04202 4.95035 3.00538 4.94491C2.96873 4.93947 2.93136 4.9414 2.89547 4.9506C2.85958 4.95979 2.82589 4.97606 2.79637 4.99845C2.76685 5.02084 2.7421 5.0489 2.72358 5.08098C2.70505 5.11307 2.69311 5.14853 2.68847 5.18528C2.68383 5.22204 2.68658 5.25935 2.69655 5.29504C2.70652 5.33072 2.72352 5.36405 2.74655 5.39307C2.76958 5.4221 2.79817 5.44623 2.83065 5.46405L3.37418 5.77816C3.43811 5.81505 3.51408 5.82504 3.58538 5.80593C3.65668 5.78681 3.71746 5.74015 3.75436 5.67622C3.79125 5.61229 3.80124 5.53632 3.78213 5.46502C3.76301 5.39373 3.71635 5.33294 3.65242 5.29605Z" fill="#4EB08C"/>
<path d="M13.4886 5.81534C13.5373 5.81536 13.5852 5.80253 13.6273 5.77816L14.1709 5.46405C14.2034 5.44623 14.2319 5.4221 14.255 5.39307C14.278 5.36405 14.295 5.33072 14.305 5.29504C14.3149 5.25935 14.3177 5.22204 14.3131 5.18528C14.3084 5.14853 14.2965 5.11307 14.2779 5.08098C14.2594 5.0489 14.2347 5.02084 14.2052 4.99845C14.1756 4.97606 14.1419 4.95979 14.1061 4.9506C14.0702 4.9414 14.0328 4.93947 13.9961 4.94491C13.9595 4.95035 13.9243 4.96305 13.8926 4.98228L13.3478 5.29605C13.2947 5.32667 13.2531 5.37397 13.2297 5.43061C13.2062 5.48725 13.2021 5.55005 13.218 5.60926C13.2339 5.66848 13.2689 5.72078 13.3176 5.75804C13.3663 5.79531 13.4259 5.81545 13.4872 5.81534H13.4886Z" fill="#4EB08C"/>
<path d="M3.37272 11.0558L2.82918 11.3699C2.7967 11.3877 2.76811 11.4119 2.74508 11.4409C2.72206 11.4699 2.70506 11.5033 2.69508 11.5389C2.68511 11.5746 2.68237 11.6119 2.68701 11.6487C2.69165 11.6855 2.70358 11.7209 2.72211 11.753C2.74064 11.7851 2.76539 11.8131 2.79491 11.8355C2.82443 11.8579 2.85812 11.8742 2.89401 11.8834C2.9299 11.8926 2.96726 11.8945 3.00391 11.8891C3.04056 11.8836 3.07575 11.8709 3.10742 11.8517L3.65229 11.5379C3.68394 11.5197 3.71169 11.4953 3.73394 11.4663C3.7562 11.4373 3.77252 11.4043 3.78199 11.369C3.79146 11.3337 3.79387 11.2968 3.78911 11.2606C3.78434 11.2244 3.77249 11.1894 3.75422 11.1578C3.73595 11.1261 3.71162 11.0984 3.68263 11.0761C3.65364 11.0538 3.62055 11.0375 3.58524 11.0281C3.54994 11.0186 3.51312 11.0162 3.47688 11.0209C3.44064 11.0257 3.4057 11.0376 3.37404 11.0558H3.37272Z" fill="#4EB08C"/>
<path d="M11.3797 3.70654C11.4286 3.70669 11.4767 3.69389 11.5191 3.66946C11.5615 3.64503 11.5967 3.60983 11.6211 3.56742L11.9352 3.02389C11.9721 2.95996 11.9821 2.88398 11.963 2.81269C11.9439 2.74139 11.8972 2.68061 11.8333 2.64371C11.7693 2.60681 11.6934 2.59682 11.6221 2.61594C11.5508 2.63506 11.49 2.68171 11.4531 2.74565L11.1393 3.28918C11.1149 3.33146 11.1021 3.37942 11.1021 3.42824C11.102 3.47706 11.1149 3.52503 11.1393 3.56732C11.1637 3.60961 11.1988 3.64474 11.241 3.66918C11.2833 3.69361 11.3312 3.7065 11.3801 3.70654H11.3797Z" fill="#4EB08C"/>
<path d="M5.75913 13.1639C5.72749 13.1456 5.69254 13.1337 5.65629 13.1289C5.62004 13.1241 5.58321 13.1265 5.54789 13.1359C5.51257 13.1454 5.47947 13.1618 5.45048 13.184C5.42149 13.2063 5.39719 13.2341 5.37896 13.2658L5.06485 13.8093C5.02796 13.8733 5.01797 13.9493 5.03708 14.0205C5.0562 14.0918 5.10286 14.1526 5.16679 14.1895C5.23072 14.2264 5.30669 14.2364 5.37799 14.2173C5.44928 14.1982 5.51007 14.1515 5.54696 14.0876L5.86073 13.5441C5.87903 13.5124 5.89091 13.4775 5.8957 13.4413C5.9005 13.405 5.89811 13.3682 5.88868 13.3329C5.87924 13.2976 5.86294 13.2645 5.84072 13.2355C5.81849 13.2065 5.79077 13.1822 5.75913 13.1639Z" fill="#4EB08C"/>
<path d="M15.8165 13.9861H14.7838V10.1807C14.7837 10.0992 14.7513 10.0211 14.6937 9.96347C14.636 9.90588 14.5579 9.87354 14.4764 9.87354H11.9114C11.83 9.87362 11.7519 9.906 11.6942 9.96357C11.6366 10.0211 11.6041 10.0992 11.604 10.1807V13.9861H10.5714C10.5119 13.9861 10.4538 14.0034 10.404 14.0358C10.3541 14.0682 10.3148 14.1144 10.2907 14.1687C10.2665 14.223 10.2586 14.2831 10.268 14.3418C10.2773 14.4005 10.3035 14.4552 10.3432 14.4994L12.9663 17.404C12.9951 17.4359 13.0303 17.4615 13.0696 17.479C13.1089 17.4965 13.1514 17.5055 13.1944 17.5056C13.2374 17.5055 13.2799 17.4965 13.3192 17.4791C13.3584 17.4616 13.3936 17.4362 13.4225 17.4043L16.0456 14.4994C16.0854 14.4552 16.1116 14.4004 16.1209 14.3416C16.1302 14.2828 16.1222 14.2226 16.0979 14.1682C16.0737 14.1139 16.0342 14.0677 15.9842 14.0354C15.9342 14.0031 15.876 13.9859 15.8165 13.9861ZM13.1934 16.8263L11.1315 14.5429H12.1608V10.43H14.2274V14.5429H15.2566L13.1934 16.8263Z" fill="#4EB08C"/>
</g>
<defs>
<clipPath id="clip0_1417_687">
<rect width="17" height="17" fill="white" transform="translate(0 0.505371)"/>
</clipPath>
</defs>
</svg>
