<svg width="17" height="18" viewBox="0 0 17 18" fill="none" xmlns="http://www.w3.org/2000/svg">
<g clip-path="url(#clip0_1417_660)">
<path d="M8.49998 6.95605C7.36975 6.95605 6.45068 7.87512 6.45068 9.00535C6.45068 10.1356 7.36975 11.0546 8.49998 11.0546C9.63021 11.0546 10.5493 10.1356 10.5493 9.00535C10.5493 7.87512 9.63021 6.95605 8.49998 6.95605ZM8.49998 10.5234C7.66326 10.5234 6.98193 9.84207 6.98193 9.00535C6.98193 8.16863 7.66326 7.4873 8.49998 7.4873C9.3367 7.4873 10.018 8.16863 10.018 9.00535C10.018 9.84207 9.3367 10.5234 8.49998 10.5234Z" fill="#4EB08C"/>
<path d="M15.4355 7.95615C16.0637 7.95615 16.575 7.44615 16.575 6.81795C16.575 6.35975 16.2948 5.94803 15.887 5.77139C15.8671 5.44732 15.7821 5.15115 15.6307 4.88818C15.1008 3.96912 13.8444 3.56404 12.0952 3.74732C11.8987 3.76725 11.6968 3.79647 11.4923 3.831C10.7976 1.95436 9.72452 0.770996 8.49999 0.770996C7.27679 0.770996 6.20499 1.9517 5.51038 3.82303C3.51421 3.47772 1.97757 3.83498 1.36929 4.88686C1.14616 5.27334 1.06515 5.7249 1.12757 6.2349C0.778271 6.43412 0.55249 6.80467 0.55249 7.22037C0.55249 7.84858 1.06382 8.3599 1.69202 8.3599C1.7996 8.3599 1.90452 8.34397 2.00679 8.31475C2.16218 8.54318 2.33616 8.77428 2.52741 9.00272C2.39327 9.16475 2.2671 9.32678 2.1489 9.48881C1.11562 10.9139 0.839365 12.2035 1.36929 13.1226C1.81687 13.8969 2.77976 14.3072 4.11983 14.3072C4.36952 14.3072 4.63116 14.2926 4.90608 14.2647C5.10265 14.2448 5.30452 14.2156 5.50905 14.1811C6.20233 16.0564 7.27546 17.2397 8.49999 17.2397C9.04452 17.2397 9.58241 16.9954 10.0672 16.5358C10.2 16.589 10.3421 16.6195 10.4882 16.6195C11.1164 16.6195 11.6264 16.1082 11.6264 15.48C11.6264 15.1705 11.5016 14.8823 11.2891 14.6725C11.3581 14.5144 11.4232 14.3524 11.4856 14.1864C11.9784 14.2714 12.4432 14.3152 12.8735 14.3152C14.187 14.3152 15.1725 13.9168 15.632 13.1226C16.2244 12.0972 15.8007 10.6044 14.4752 9.00803C14.7701 8.65209 15.0251 8.2935 15.2362 7.93756C15.3 7.94951 15.3677 7.95615 15.4355 7.95615ZM15.4355 7.4249C15.3571 7.4249 15.2801 7.41029 15.2084 7.38107C14.9773 7.28811 14.8272 7.06764 14.8272 6.81928C14.8272 6.48326 15.0994 6.211 15.4355 6.211C15.4833 6.211 15.5258 6.21631 15.5696 6.22561C15.8445 6.2867 16.0437 6.53639 16.0437 6.81928C16.0437 7.15264 15.7715 7.4249 15.4355 7.4249ZM12.151 4.27592C13.6584 4.1192 14.7581 4.43928 15.1712 5.15381C15.2628 5.31186 15.3186 5.48982 15.3438 5.68373C14.7581 5.73022 14.2959 6.22162 14.2959 6.81928C14.2959 7.18186 14.4673 7.51123 14.7448 7.7224C14.5682 8.01193 14.3584 8.30545 14.118 8.60029C13.5681 7.99998 12.92 7.41959 12.1948 6.87639C12.0859 5.95334 11.9053 5.10068 11.6676 4.341C11.8309 4.31443 11.9916 4.29186 12.151 4.27592ZM10.1442 11.8542C9.59968 12.169 9.04851 12.4479 8.50132 12.6909C7.94749 12.4452 7.39366 12.165 6.85577 11.8542C6.31124 11.5394 5.7946 11.2034 5.30983 10.8501C5.24476 10.2565 5.21023 9.63889 5.21023 9.00537C5.21023 8.37186 5.24476 7.75428 5.30983 7.16061C5.79327 6.80732 6.31124 6.47131 6.85577 6.15654C7.4003 5.84178 7.95148 5.56287 8.49866 5.31982C9.05249 5.56553 9.60632 5.84576 10.1442 6.15654C10.6887 6.47131 11.2054 6.80732 11.6901 7.16061C11.7552 7.75428 11.7898 8.37186 11.7898 9.00537C11.7898 9.6349 11.7566 10.2512 11.6928 10.8448C11.2067 11.2008 10.6874 11.5408 10.1442 11.8542ZM11.5998 11.5647C11.4909 12.2792 11.3355 12.9526 11.1363 13.5688C10.5134 13.4347 9.8507 13.2341 9.16538 12.9685C9.58109 12.7693 9.99679 12.5515 10.4085 12.3137C10.8229 12.076 11.22 11.825 11.5998 11.5647ZM7.8346 12.9685C7.16257 13.2301 6.50249 13.432 5.8703 13.5688C5.67507 12.9619 5.51835 12.2872 5.40546 11.5687C5.78398 11.8276 6.17976 12.0773 6.59015 12.3137C6.99788 12.5501 7.41491 12.768 7.8346 12.9685ZM4.73343 10.4092C4.17296 9.95897 3.66827 9.48748 3.22999 9.00404C3.66429 8.52459 4.1703 8.05311 4.7321 7.60154C4.69757 8.05709 4.67765 8.52459 4.67765 9.00537C4.67898 9.48483 4.69757 9.95365 4.73343 10.4092ZM5.40546 6.44342C5.51835 5.72357 5.67507 5.05022 5.8703 4.44326C6.49054 4.5774 7.15194 4.77662 7.8346 5.04225C7.4189 5.24147 7.00319 5.45928 6.59148 5.69701C6.17976 5.93342 5.78398 6.18443 5.40546 6.44342ZM9.16538 5.04225C9.83741 4.78061 10.4975 4.57873 11.1297 4.44193C11.3249 5.04889 11.4816 5.72358 11.5945 6.44209C11.216 6.18311 10.8202 5.93342 10.4098 5.69701C10.0021 5.46061 9.58507 5.24279 9.16538 5.04225ZM12.2666 7.60154C12.8257 8.05045 13.3304 8.52061 13.7687 9.00404C13.3357 9.48084 12.8297 9.95233 12.2666 10.4052C12.3024 9.94834 12.321 9.48084 12.321 9.0067C12.321 8.52592 12.3024 8.05709 12.2666 7.60154ZM8.49999 1.30225C9.46288 1.30225 10.3448 2.33287 10.953 3.93725C10.1641 4.11256 9.33671 4.3835 8.49999 4.74076C7.64069 4.3742 6.81593 4.10459 6.04827 3.93193C6.65655 2.33021 7.53843 1.30225 8.49999 1.30225ZM1.08374 7.2217C1.08374 6.9574 1.25108 6.72631 1.50608 6.64397C1.56319 6.62404 1.62562 6.61475 1.69202 6.61475C2.02804 6.61475 2.3003 6.88701 2.3003 7.2217C2.3003 7.44482 2.17812 7.65068 1.98421 7.75561C1.89257 7.80475 1.79429 7.82998 1.69202 7.82998C1.35601 7.82998 1.08374 7.55772 1.08374 7.2217ZM2.4703 8.05311C2.69741 7.84061 2.83155 7.54045 2.83155 7.2217C2.83155 6.5935 2.32022 6.0835 1.69202 6.0835C1.67608 6.0835 1.66147 6.08615 1.64687 6.08748C1.61765 5.73022 1.67741 5.41678 1.82882 5.15381C2.30163 4.33568 3.62577 4.0674 5.33241 4.34232C5.09468 5.10068 4.91405 5.95467 4.80382 6.87639C4.07733 7.42225 3.42788 8.00397 2.88202 8.60029C2.73194 8.41701 2.59515 8.23506 2.4703 8.05311ZM4.84897 13.7348C3.34288 13.8929 2.24187 13.5728 1.82882 12.8569C1.41577 12.1411 1.68937 11.0281 2.57788 9.80225C2.67218 9.67209 2.77444 9.54061 2.88069 9.41045C3.43054 10.0108 4.07866 10.5912 4.80249 11.1357C4.91272 12.0561 5.09335 12.9101 5.33108 13.6697C5.16905 13.6963 5.00835 13.7189 4.84897 13.7348ZM10.4882 16.0883C10.3713 16.0883 10.2571 16.0551 10.1588 15.9913C9.98351 15.8784 9.87991 15.6885 9.87991 15.48C9.87991 15.144 10.1522 14.8717 10.4882 14.8717C10.6077 14.8717 10.7206 14.9062 10.8202 14.9726C10.9916 15.0842 11.0951 15.2741 11.0951 15.48C11.0951 15.816 10.8229 16.0883 10.4882 16.0883ZM10.8309 14.3949C10.7206 14.3604 10.6064 14.3405 10.4882 14.3405C9.85999 14.3405 9.34866 14.8518 9.34866 15.48C9.34866 15.7576 9.4496 16.0179 9.62491 16.2224C9.26233 16.5438 8.88382 16.7085 8.49999 16.7085C7.5371 16.7085 6.65523 15.6779 6.04694 14.0735C6.83585 13.8982 7.66327 13.6272 8.49999 13.27C9.36194 13.6379 10.1894 13.9075 10.9584 14.0815C10.9172 14.1877 10.8747 14.2913 10.8309 14.3949ZM15.1712 12.8569C14.697 13.6764 13.3729 13.9433 11.6636 13.6684C11.9066 12.8968 12.0859 12.0428 12.1948 11.137C12.9266 10.5885 13.5761 10.0055 14.1206 9.41178C15.2376 10.7837 15.632 12.0587 15.1712 12.8569Z" fill="#4EB08C"/>
</g>
<defs>
<clipPath id="clip0_1417_660">
<rect width="17" height="17" fill="white" transform="translate(0 0.505371)"/>
</clipPath>
</defs>
</svg>
