<svg width="17" height="18" viewBox="0 0 17 18" fill="none" xmlns="http://www.w3.org/2000/svg">
<g clip-path="url(#clip0_1417_669)">
<path d="M15.1817 14.4547L10.8069 8.86592C10.6276 8.63748 10.5293 8.35326 10.5293 8.06373V3.06068H10.6209C11.2133 3.06068 11.6967 2.57857 11.6967 1.9849V1.84678C11.6967 1.25443 11.2146 0.770996 10.6209 0.770996H6.37757C5.78522 0.770996 5.30178 1.25311 5.30178 1.84678V1.98623C5.30178 2.57857 5.78389 3.06201 6.37757 3.06201H6.46921V8.0624C6.46921 8.35193 6.37093 8.63748 6.19163 8.86592L4.87944 10.542C4.87811 10.5447 4.87546 10.5473 4.87413 10.55L1.81811 14.4547C1.40905 14.978 1.336 15.6739 1.62686 16.2715C1.91772 16.8692 2.51139 17.2397 3.17678 17.2397H13.823C14.4871 17.2397 15.0821 16.8692 15.373 16.2715C15.6638 15.6739 15.5908 14.978 15.1817 14.4547ZM5.83436 1.9849V1.84678C5.83436 1.54662 6.07874 1.30225 6.37889 1.30225H10.6223C10.9224 1.30225 11.1668 1.54662 11.1668 1.84678V1.98623C11.1668 2.28639 10.9224 2.53076 10.6223 2.53076H6.37757C6.07741 2.52943 5.83436 2.28506 5.83436 1.9849ZM6.61132 9.19397C6.86366 8.87256 7.00179 8.47147 7.00179 8.0624V3.06068H9.99936V8.06373C9.99936 8.47147 10.1375 8.87256 10.3898 9.19264L10.7484 9.64951C9.48007 9.51803 8.73897 9.79826 8.01913 10.0732C7.7296 10.1834 7.45733 10.287 7.15054 10.364C6.5728 10.5075 6.04553 10.558 5.57803 10.5141L6.61132 9.19397ZM14.8948 16.0378C14.6903 16.4575 14.2892 16.7085 13.823 16.7085H3.17678C2.70928 16.7085 2.30952 16.4575 2.10499 16.0378C1.90046 15.6181 1.9496 15.148 2.2378 14.7814L5.19952 10.9976C5.4253 11.0401 5.66303 11.0613 5.91272 11.0613C6.33639 11.0613 6.79327 11.0015 7.27803 10.8807C7.61538 10.797 7.91686 10.6815 8.20772 10.5712C8.99397 10.2711 9.73905 9.98951 11.2199 10.2565L14.7633 14.7827C15.0502 15.1493 15.0994 15.6181 14.8948 16.0378Z" fill="#4EB08C"/>
<path d="M11.8202 13.6792C11.2079 13.6792 10.7112 14.1772 10.7112 14.7882C10.7112 15.3991 11.2092 15.8972 11.8202 15.8972C12.4311 15.8972 12.9291 15.3991 12.9291 14.7882C12.9291 14.1772 12.4311 13.6792 11.8202 13.6792ZM11.8202 15.3672C11.5014 15.3672 11.2424 15.1083 11.2424 14.7895C11.2424 14.4708 11.5014 14.2118 11.8202 14.2118C12.1389 14.2118 12.3979 14.4708 12.3979 14.7895C12.3979 15.1083 12.1389 15.3672 11.8202 15.3672Z" fill="#4EB08C"/>
<path d="M6.10783 12.9748C5.84884 12.8314 5.54868 12.7968 5.26447 12.8779C4.97892 12.9589 4.74384 13.1461 4.59908 13.4051C4.45564 13.6641 4.42111 13.9643 4.50212 14.2485C4.58314 14.534 4.7704 14.7691 5.02939 14.9139C5.19673 15.0068 5.38134 15.0547 5.56728 15.0547C5.66954 15.0547 5.77181 15.04 5.87407 15.0108C6.15962 14.9298 6.3947 14.7425 6.53947 14.4836C6.6829 14.2246 6.71743 13.9244 6.63642 13.6402C6.55408 13.3547 6.36681 13.1182 6.10783 12.9748ZM6.07329 14.2246C5.99892 14.36 5.8754 14.457 5.72665 14.4995C5.5779 14.542 5.42251 14.5234 5.28704 14.449C5.15158 14.3733 5.05462 14.2511 5.01212 14.1024C4.96962 13.9536 4.98822 13.7982 5.06259 13.6628C5.13697 13.5273 5.26048 13.4304 5.40923 13.3879C5.46236 13.3732 5.51548 13.3653 5.56861 13.3653C5.66556 13.3653 5.76118 13.3905 5.84884 13.4383C5.98431 13.514 6.08126 13.6362 6.12376 13.785C6.16626 13.9337 6.149 14.0904 6.07329 14.2246Z" fill="#4EB08C"/>
<path d="M9.06421 11.5527C8.60601 11.5527 8.23413 11.9246 8.23413 12.3828C8.23413 12.841 8.60601 13.2129 9.06421 13.2129C9.52241 13.2129 9.89429 12.841 9.89429 12.3828C9.89429 11.9246 9.52241 11.5527 9.06421 11.5527ZM9.06421 12.6816C8.89952 12.6816 8.76538 12.5475 8.76538 12.3828C8.76538 12.2181 8.89952 12.084 9.06421 12.084C9.2289 12.084 9.36304 12.2181 9.36304 12.3828C9.36304 12.5475 9.2289 12.6816 9.06421 12.6816Z" fill="#4EB08C"/>
</g>
<defs>
<clipPath id="clip0_1417_669">
<rect width="17" height="17" fill="white" transform="translate(0 0.505371)"/>
</clipPath>
</defs>
</svg>
